<?xml version="1.0" encoding="UTF-8" standalone="no"?>
<svg
   viewBox="0 0 256 256"
   version="1.1"
   id="svg11"
   sodipodi:docname="brain_laptop_icon_2.svg"
   inkscape:version="1.4.4 (dcaf3e7, 2026-05-05)"
   xmlns:inkscape="http://www.inkscape.org/namespaces/inkscape"
   xmlns:sodipodi="http://sodipodi.sourceforge.net/DTD/sodipodi-0.dtd"
   xmlns="http://www.w3.org/2000/svg"
   xmlns:svg="http://www.w3.org/2000/svg">
  <defs
     id="defs11" />
  <sodipodi:namedview
     id="namedview11"
     pagecolor="#ffffff"
     bordercolor="#000000"
     borderopacity="0.25"
     inkscape:showpageshadow="2"
     inkscape:pageopacity="0.0"
     inkscape:pagecheckerboard="0"
     inkscape:deskcolor="#d1d1d1"
     inkscape:zoom="3.2234126"
     inkscape:cx="124.55744"
     inkscape:cy="126.10859"
     inkscape:window-width="3440"
     inkscape:window-height="1369"
     inkscape:window-x="-8"
     inkscape:window-y="-8"
     inkscape:window-maximized="1"
     inkscape:current-layer="g11" />
  <g
     fill="none"
     stroke="#000"
     stroke-width="8"
     stroke-linecap="round"
     stroke-linejoin="round"
     id="g11">
    <!-- Laptop -->
    <rect
       x="48"
       y="40"
       width="160"
       height="112"
       rx="8"
       id="rect1"
       style="stroke-width:13;stroke-dasharray:none" />
    <path
       d="M24 184h208"
       id="path1" />
    <path
       d="M40 152l-16 32h208l-16-32"
       id="path2"
       style="stroke-width:13;stroke-dasharray:none" />
    <!-- Brain inside screen -->
    <path
       d="M103 79              c-10-12-30-3-30 13              c0 8 4 14 10 17              c-4 11 3 23 16 23              c6 0 10-2 14-6"
       id="path3"
       style="stroke-width:13;stroke-dasharray:none" />
    <path
       d="M153 79              c10-12 30-3 30 13              c0 8-4 14-10 17              c4 11-3 23-16 23              c-6 0-10-2-14-6"
       id="path4"
       style="stroke-width:13;stroke-dasharray:none" />
    <path
       d="M128 70v66"
       id="path5"
       style="stroke-width:13;stroke-dasharray:none" />
    <path
       d="M128 82c-8-8-18-7-24 0"
       id="path6"
       style="stroke-width:13;stroke-dasharray:none" />
    <path
       d="M128 102c-10-8-20-6-28 2"
       id="path7"
       style="stroke-width:13;stroke-dasharray:none" />
    <path
       d="M128 122c-8-6-18-5-24 2"
       id="path8"
       style="stroke-width:13;stroke-dasharray:none" />
    <path
       d="M128 82c8-8 18-7 24 0"
       id="path9"
       style="stroke-width:13;stroke-dasharray:none" />
    <path
       d="M128 102c10-8 20-6 28 2"
       id="path10"
       style="stroke-width:13;stroke-dasharray:none" />
    <path
       d="M128 122c8-6 18-5 24 2"
       id="path11"
       style="stroke-width:13;stroke-dasharray:none" />
  </g>
</svg>
